# Blender v2.82 (sub 7) OBJ File: ''
# www.blender.org
mtllib mindmap_two.mtl
o Cube
v 2.000000 3.995809 0.083547
v 2.000000 3.995809 -0.083546
v 2.000000 -0.004191 0.083546
v 2.000000 -0.004191 -0.083547
v -2.000000 3.995809 0.083547
v -2.000000 3.995809 -0.083546
v -2.000000 -0.004191 0.083546
v -2.000000 -0.004191 -0.083547
vt 0.625000 0.500000
vt 0.875000 0.500000
vt 0.875000 0.750000
vt 0.625000 0.750000
vt 0.375000 0.750000
vt 0.625000 1.000000
vt 0.375000 1.000000
vt 0.375000 0.000000
vt 0.625000 0.000000
vt 0.625000 0.250000
vt 0.375000 0.250000
vt 0.125000 0.500000
vt 0.375000 0.500000
vt 0.125000 0.750000
vn 0.0000 -0.0000 1.0000
vn 0.0000 -1.0000 0.0000
vn -1.0000 0.0000 0.0000
vn 0.0000 0.0000 -1.0000
vn 1.0000 0.0000 0.0000
vn 0.0000 1.0000 0.0000
usemtl Material
s off
f 1/1/1 5/2/1 7/3/1 3/4/1
f 4/5/2 3/4/2 7/6/2 8/7/2
f 8/8/3 7/9/3 5/10/3 6/11/3
f 6/12/4 2/13/4 4/5/4 8/14/4
f 2/13/5 1/1/5 3/4/5 4/5/5
f 6/11/6 5/10/6 1/1/6 2/13/6
o Plane
v -0.209733 1.623569 0.094834
v 1.790267 1.623569 0.094834
v -0.209733 3.623558 0.088352
v 1.790267 3.623558 0.088352
vt 0.000000 0.000000
vt 1.000000 0.000000
vt 1.000000 1.000000
vt 0.000000 1.000000
vn 0.0000 0.0032 1.0000
usemtl Material.001
s off
f 9/15/7 10/16/7 12/17/7 11/18/7
o Plane.001
v 2.216862 -0.179176 -2.434692
v 6.256862 -0.179176 -2.434692
v 2.216862 3.860824 -2.434692
v 6.256862 3.860824 -2.434692
vt 0.000000 0.000000
vt 1.000000 0.000000
vt 1.000000 1.000000
vt 0.000000 1.000000
vn 0.0000 0.0000 1.0000
usemtl None
s off
f 13/19/8 14/20/8 16/21/8 15/22/8
o Cube.001_Cube.002
v 3.236862 0.727574 -1.332829
v 3.236862 2.727574 -1.332829
v 3.236862 0.727574 -3.332829
v 3.236862 2.727574 -3.332829
v 5.236862 0.727574 -1.332829
v 5.236862 2.727574 -1.332829
v 5.236862 0.727574 -3.332829
v 5.236862 2.727574 -3.332829
vt 0.375000 0.000000
vt 0.625000 0.000000
vt 0.625000 0.250000
vt 0.375000 0.250000
vt 0.625000 0.500000
vt 0.375000 0.500000
vt 0.625000 0.750000
vt 0.375000 0.750000
vt 0.625000 1.000000
vt 0.375000 1.000000
vt 0.125000 0.500000
vt 0.125000 0.750000
vt 0.875000 0.500000
vt 0.875000 0.750000
vn -1.0000 0.0000 0.0000
vn 0.0000 0.0000 -1.0000
vn 1.0000 0.0000 0.0000
vn 0.0000 0.0000 1.0000
vn 0.0000 -1.0000 0.0000
vn 0.0000 1.0000 0.0000
usemtl None
s off
f 17/23/9 18/24/9 20/25/9 19/26/9
f 19/26/10 20/25/10 24/27/10 23/28/10
f 23/28/11 24/27/11 22/29/11 21/30/11
f 21/30/12 22/29/12 18/31/12 17/32/12
f 19/33/13 23/28/13 21/30/13 17/34/13
f 24/27/14 20/35/14 18/36/14 22/29/14
o Plane.002
v -1.867825 3.436897 0.093531
v -1.867825 1.936897 0.093531
v -0.367825 3.436897 0.093531
v -0.367825 1.936897 0.093531
vt 0.000000 0.000000
vt 1.000000 0.000000
vt 1.000000 1.000000
vt 0.000000 1.000000
vn -0.0000 0.0000 1.0000
usemtl Material.002
s off
f 25/37/15 26/38/15 28/39/15 27/40/15
o Plane.003
v -1.802133 1.610465 0.093531
v -1.802133 0.110465 0.093531
v -0.302133 1.610465 0.093531
v -0.302133 0.110465 0.093531
vt 0.000000 0.000000
vt 1.000000 0.000000
vt 1.000000 1.000000
vt 0.000000 1.000000
vn -0.0000 0.0000 1.0000
usemtl Material.003
s off
f 29/41/16 30/42/16 32/43/16 31/44/16
o Plane.004
v 0.123900 1.551975 0.093531
v 0.123900 0.051975 0.093531
v 1.623900 1.551975 0.093531
v 1.623900 0.051974 0.093531
vt 0.000000 0.000000
vt 1.000000 0.000000
vt 1.000000 1.000000
vt 0.000000 1.000000
vn -0.0000 0.0000 1.0000
usemtl Material.004
s off
f 33/45/17 34/46/17 36/47/17 35/48/17
