# Blender v2.82 (sub 7) OBJ File: 'VisualNarrProj2.blend'
# www.blender.org
mtllib MMap3.mtl
o Cube
v 0.971721 1.574355 0.193069
v 0.971721 1.574355 0.128775
v 0.971721 0.035236 0.193069
v 0.971721 0.035236 0.128775
v -0.567397 1.574355 0.193069
v -0.567397 1.574355 0.128775
v -0.567397 0.035236 0.193069
v -0.567397 0.035236 0.128775
vt 0.625000 0.500000
vt 0.875000 0.500000
vt 0.875000 0.750000
vt 0.625000 0.750000
vt 0.375000 0.750000
vt 0.625000 1.000000
vt 0.375000 1.000000
vt 0.375000 0.000000
vt 0.625000 0.000000
vt 0.625000 0.250000
vt 0.375000 0.250000
vt 0.125000 0.500000
vt 0.375000 0.500000
vt 0.125000 0.750000
vn 0.0000 -0.0000 1.0000
vn 0.0000 -1.0000 0.0000
vn -1.0000 0.0000 0.0000
vn 0.0000 0.0000 -1.0000
vn 1.0000 0.0000 0.0000
vn 0.0000 1.0000 0.0000
usemtl Material
s off
f 1/1/1 5/2/1 7/3/1 3/4/1
f 4/5/2 3/4/2 7/6/2 8/7/2
f 8/8/3 7/9/3 5/10/3 6/11/3
f 6/12/4 2/13/4 4/5/4 8/14/4
f 2/13/5 1/1/5 3/4/5 4/5/5
f 6/11/6 5/10/6 1/1/6 2/13/6
o Plane
v 0.121461 0.661565 0.197412
v 0.891020 0.661565 0.197412
v 0.121461 1.431120 0.194917
v 0.891020 1.431120 0.194917
vt 0.000000 0.000000
vt 1.000000 0.000000
vt 1.000000 1.000000
vt 0.000000 1.000000
vn 0.0000 0.0032 1.0000
usemtl Material.001
s off
f 9/15/7 10/16/7 12/17/7 11/18/7
o Plane.002
v -0.516539 1.359297 0.196910
v -0.516539 0.782127 0.196910
v 0.060630 1.359297 0.196910
v 0.060630 0.782127 0.196910
vt 0.000000 0.000000
vt 1.000000 0.000000
vt 1.000000 1.000000
vt 0.000000 1.000000
vn -0.0000 0.0000 1.0000
usemtl Material.002
s off
f 13/19/8 14/20/8 16/21/8 15/22/8
o Plane.003
v -0.491262 0.656523 0.196910
v -0.491262 0.079353 0.196910
v 0.085907 0.656523 0.196910
v 0.085907 0.079353 0.196910
vt 0.000000 0.000000
vt 1.000000 0.000000
vt 1.000000 1.000000
vt 0.000000 1.000000
vn -0.0000 0.0000 1.0000
usemtl Material.003
s off
f 17/23/9 18/24/9 20/25/9 19/26/9
o Plane.004
v 0.249836 0.634017 0.196910
v 0.249836 0.056847 0.196910
v 0.827006 0.634017 0.196910
v 0.827006 0.056847 0.196910
vt 0.000000 0.000000
vt 1.000000 0.000000
vt 1.000000 1.000000
vt 0.000000 1.000000
vn -0.0000 0.0000 1.0000
usemtl Material.004
s off
f 21/27/10 22/28/10 24/29/10 23/30/10
